<svg xmlns="http://www.w3.org/2000/svg" id="Layer_1" data-name="Layer 1" viewBox="0 0 215.82 42.13"><defs/><defs/><path d="M16.47.08L2.3 4.66A3.32 3.32 0 000 8.06l2 27.31a3.32 3.32 0 002.34 2.93l12.15 3.76a1.65 1.65 0 002.15-1.59V1.66A1.66 1.66 0 0017 0a1.75 1.75 0 00-.53.08zM13.71 23.8c-1 0-1.79-1.2-1.79-2.69s.8-2.7 1.79-2.7 1.78 1.21 1.78 2.7-.8 2.69-1.78 2.69z" class="cls-1"/><path fill="#a73a36" d="M18.64 2.41l5.18 35.68-5.18 1.63V2.41z" opacity=".2" style="isolation:isolate"/><path fill="#912424" style="isolation:isolate" d="M0 8.06l2 27.31a3.32 3.32 0 002.34 2.93l12.15 3.76-6.21-5.34a15.6 15.6 0 01-4.95-8z" opacity=".2"/><path d="M30.33 8.48a1.12 1.12 0 01.77 1.17l-.34 4.23-.12 1.46 2.18.19.12-1.47.35-4.23A3.33 3.33 0 0031 6.4l-5.09-1.64-.91-.28v2.3l.19.06zM29.6 27.9l-.09 1.1-.36 4.36a1.12 1.12 0 01-.78 1l-3.47 1.1-1.4.43.32 2.2 1.74-.55L29 36.45a3.32 3.32 0 002.32-2.89l.35-4.36.1-1.11z" class="cls-4"/><path d="M50 29.83l1.73-1.73a8.58 8.58 0 006.89 3.63 5.12 5.12 0 005.71-4.43v-.42c0-3.22-3-4.49-6-5.79-3.58-1.51-7-3.06-7-7.44a6.68 6.68 0 016.61-6.76 5.82 5.82 0 01.59 0 9.52 9.52 0 017.42 3.44l-1.58 1.57a7.33 7.33 0 00-5.85-2.8 4.5 4.5 0 00-4.92 4v.37c0 3.19 3 4.37 6.07 5.67 3.4 1.41 7 3 7 7.65A7.13 7.13 0 0159.48 34a6.56 6.56 0 01-.76 0A11.59 11.59 0 0150 29.83zM70.16 24.49a9.36 9.36 0 019.19-9.4 8.76 8.76 0 017.51 4v-3.66h2.23v18.15h-2.23V30a8.79 8.79 0 01-7.51 4 9.37 9.37 0 01-9.19-9.51zm16.7 0a7.24 7.24 0 100 .06zM98.24 12.19v3.24h4.92v2h-4.92v16.15H96V17.45h-3v-2h3V12a4.7 4.7 0 014.35-5 3.11 3.11 0 01.53 0 7.93 7.93 0 012.27.37v2a5.25 5.25 0 00-2-.42 2.9 2.9 0 00-3 2.82 3 3 0 00.09.42zM123.79 24.84H107a7.35 7.35 0 0013.59 3.57l1.91.8a9.31 9.31 0 01-8.13 4.72 9.42 9.42 0 119.41-9.66zM107.19 23h14.32a7.2 7.2 0 00-7.12-5.89 7.28 7.28 0 00-7.2 5.89z" class="cls-1"/><path d="M133.66 11.8v6.39H143v4.49h-9.35V29h10.61v4.54h-15.71V7.25h15.72v4.55zM165.93 22.05v11.53H161V22.92c0-2.9-1.36-3.74-3.24-3.74-2.08 0-3.59 1.32-3.6 4.08v10.32h-4.91V15.43h4.91V18a6.42 6.42 0 015.48-2.89c3.89-.02 6.29 2.39 6.29 6.94zM176.62 18.84v8.54c0 1.66.91 2.45 2.21 2.45h1.87v3.75h-3.09a5.27 5.27 0 01-5.87-4.58 5.08 5.08 0 010-1v-9.16h-2.86v-3.41h2.86v-5h4.9v5h4.14v3.41zM195.79 15.26v4.66c-3.8 0-6 1.37-6 5v8.67h-4.89V15.43h4.67v3.48a7.61 7.61 0 016.22-3.65zM215.82 15.43l-10.68 26.69h-5l3.81-9.62-7-17.07h5.37l4.19 12.45 4.19-12.45z" class="cls-4"/></svg>