<svg xmlns="http://www.w3.org/2000/svg" width="250" height="250" fill="none"><defs/><path fill="#0070E0" d="M228 29c4 1 6 5 5 9l-2 32-1 11 17 1V72l3-31c1-12-6-22-17-26L194 3l-7-3v17l2 1 39 11zM222 174l-1 8-3 33c0 3-2 6-5 7l-27 8-11 4 3 16 13-4 27-8c10-3 16-12 17-21l3-33v-8l-16-2zM22 29c-4 2-6 5-5 9l2 32 1 11-17 1V71L0 40c-1-11 6-22 17-25L56 2l6-2v17l-1 1-39 11zM28 174l1 8 3 33c0 3 2 6 5 7l27 8 11 4-3 16-13-4-27-8c-10-3-16-12-17-21l-3-33v-8l16-2zM92 110h101c6 0 10 4 10 10v6c0 6-4 10-10 10H91l1 1 33 33c3 3 4 8 2 11-3 3-5 6-9 8-3 3-8 2-11-1l-11-11-47-46c-2-2-3-3-3-5-2-3-1-6 2-9l11-11 48-47c2-3 5-3 8-3s4 0 5 2l5 5c4 4 3 9 0 13l-29 28-4 6c-1 0-1 0 0 0z"/></svg>