<svg xmlns="http://www.w3.org/2000/svg" width="150" height="180" fill="none"><defs/><path fill="#DB0000" fill-rule="evenodd" d="M68 41s25 19-12 57c-36 39-8 63-8 63s-6 7-3 19c0 0-15-9-27-23-16-21-27-53 20-79 0 0 30-15 24-35 0 0 4 0 6-2zm7-7c42 18 35 47 11 71-16 15-11 32-11 32s-18 12-25 21c0 0-26-22 11-60 36-36 11-59 11-59 1-1 3-3 3-5zm39 84l-36 18s-5-15 13-33c17-17 34-50-14-72 0 0 1-5-2-7 55-1 75 65 39 94zm12-7s11-15 9-35c0-27-22-56-67-55 44-37 121 46 58 90zM29 24c0 6 9 5 9 0h28c5 0 9 3 6 10-4 7-15 5-15 5 7 16-4 30-20 30H21C7 69 6 75 6 75c-9-12-2-21-2-21s1 6 12 6c12 0 14-11 3-11h-7c-5 0-8 3-8 3l-3-7c-2-6 0-8 1-9l5-1v-3c-3 0-5 2-5 2 0-10 12-10 12-10h15zM75 0c19 0 31 6 41 14 0 0-27-16-53 7H24s5-9 17-9c9 0 11-5 11-5 0-1 5-7 23-7z" clip-rule="evenodd"/></svg>