<svg xmlns="http://www.w3.org/2000/svg" width="500" height="89" fill="none"><defs/><path fill="#fff" d="M24 14L3 21l-2 2-1 3 3 39 1 2 2 2 18 5a3 3 0 003 0 2 2 0 001-2V16l-1-1a2 2 0 00-3-1zm-4 34l-2-4 2-4c2 0 3 2 3 4s-1 4-3 4z"/><path fill="#F4F4F4" d="M28 17l7 52-7 2V17z" opacity=".2"/><path fill="#fff" d="M0 26l3 39 1 2 2 2 18 5-9-7c-3-3-6-7-7-12L0 26z" opacity=".2"/><path fill="#fff" d="M45 26l1 1v1l-1 6v2h3l1-2v-6l-1-3-2-2-8-2-1-1v4l8 2zM44 54v2l-1 6v1h-1l-5 2h-2v4l3-1 5-2 2-1 1-3 1-6v-2h-3zM101 53l-2 5-4 4-6 1-7-1-5-4-2-5h5l1 3 3 2 4 1 6-1 1-5-1-4-3-2-5-2-6-2-4-3-1-6 1-5 4-4 7-1c4 0 7 1 9 3 2 1 3 4 4 7h-6l-2-4c-1-2-3-2-5-2l-5 1-2 5 1 3 3 3 5 1 6 3c2 0 3 2 4 3l2 6zm19-21c3 0 5 1 7 3 2 1 4 3 4 6v-8h5v30h-5v-8c0 3-2 5-4 6-2 2-4 2-7 2l-7-1-5-6c-2-2-2-5-2-8s0-6 2-8a13 13 0 0112-8zm1 5c-3 0-5 1-7 3s-3 4-3 8c0 3 1 6 3 8s4 3 7 3l5-1 4-4 1-6-1-6-4-4-5-1zm37-11l-6 1-1 5v1h7v4h-7v26h-5V37h-5v-4h5v-1c0-8 4-11 12-11v5zm33 20v3h-24c0 3 1 6 3 8l6 2 6-1c2-2 3-3 3-5h6a13 13 0 01-8 9l-6 1-8-1-5-6c-2-2-2-5-2-8s0-6 2-8c1-3 3-4 5-6l8-2 7 2 5 5 2 7zm-5 1l-1-6c-1-2-2-3-4-3l-4-2c-3 0-5 1-7 3s-3 4-3 8h19zm19-17v10h14v6h-14v11h15v6h-23V24h23v6h-15zm39 2c4 0 6 1 9 4 2 2 3 5 3 9v18h-8V46l-2-5c-1-2-3-2-5-2s-4 0-5 2c-2 1-2 3-2 6v16h-8V33h8v6l4-5 6-2zm35 24v7h-4l-8-2c-2-2-3-5-3-9V39h-4v-6h4v-8h8v8h7v6h-7v13l1 3 3 1h3zm13-18a13 13 0 0111-6v8h-2c-6 0-9 3-9 8v15h-8V33h8v5zm20-5l9 20 7-20h9l-19 45h-8l7-16-13-29h8zm48 14v16h-5V24h12c4 0 8 1 10 3s3 5 3 9c0 3-1 6-3 8s-6 3-10 3h-7zm7-4c3 0 5 0 6-2l2-5-2-6-6-2h-7v15h7zm31-11c3 0 6 1 8 3 2 1 3 3 4 6v-8h5v30h-5v-8c-1 3-2 5-4 6-2 2-5 2-8 2l-7-1-5-6-1-8 1-8a13 13 0 0112-8zm2 5c-3 0-6 1-8 3l-2 8 2 8c2 2 5 3 8 3l5-1 4-4 1-6-1-6-4-4-5-1zm33-5c3 0 6 1 8 3l4 7h-5l-2-4-6-2-4 1-1 4 1 3 2 1 4 1 6 2 3 2 2 5c0 3-1 5-3 6-2 2-4 2-7 2-4 0-7 0-9-2s-4-4-4-7h5l2 4 6 2 4-2 1-3-1-3-2-1-5-2-5-1c-1-1-3-1-3-3l-2-4c0-3 1-5 3-6 2-2 4-3 8-3zm28 0c3 0 6 1 8 3s4 4 4 7h-5l-2-4-5-2-4 1-2 4 1 3 3 1 4 1 5 2 4 2 1 5c0 3-1 5-3 6-1 2-4 2-7 2s-6 0-9-2l-4-7h5l2 4 6 2 4-2 2-3-1-3-3-1-4-2-6-1-3-3-1-4c0-3 0-5 2-6 2-2 5-3 8-3z"/></svg>