<svg xmlns="http://www.w3.org/2000/svg" width="250" height="251" fill="none"><defs/><path fill="#fff" d="M228 29c4 1 6 5 5 9l-2 32-1 11 17 1V72l3-31c1-12-6-22-17-26L194 3l-7-3v17l2 1 39 11zM222 174l-1 8-3 33c0 3-2 7-5 7l-27 8-11 4 3 16 13-4 27-8c10-3 16-12 17-21l3-33v-8l-16-2zM22 29c-4 2-6 5-5 9l2 32 1 11-17 1V71L0 40c-1-11 6-22 17-25L56 2l6-2v17l-1 1-39 11zM28 174l1 8 3 33c0 3 2 7 5 7l27 8 11 4-3 16-13-4-27-8c-10-3-16-12-17-21l-3-33v-8l16-2zM156 136H55c-6 0-10-4-10-10v-6c0-6 4-10 10-10h101v-1l-33-32c-4-4-5-9-2-12l8-8c3-2 8-2 12 2l10 10 48 47 3 4c2 3 1 6-3 9l-10 11-48 47c-3 3-5 4-9 4-2 0-4-1-5-3l-4-5c-5-4-4-9 0-13l28-28c1-3 4-4 5-6z"/></svg>